<svg xmlns="http://www.w3.org/2000/svg" version="1.1" xmlns:xlink="http://www.w3.org/1999/xlink" xmlns:svgjs="http://svgjs.dev/svgjs" width="1000" height="1000" viewBox="0 0 1000 1000"><rect width="1000" height="1000" fill="#ffffff"></rect><g transform="matrix(0.7,0,0,0.7,149.57575757575756,282.1265587044535)"><svg viewBox="0 0 396 247" data-background-color="#ffffff" preserveAspectRatio="xMidYMid meet" height="623" width="1000" xmlns="http://www.w3.org/2000/svg" xmlns:xlink="http://www.w3.org/1999/xlink"><g id="tight-bounds" transform="matrix(1,0,0,1,0.2400000000000091,-0.09999999999999432)"><svg viewBox="0 0 395.52 247.2" height="247.2" width="395.52"><g><svg></svg></g><g><svg viewBox="0 0 395.52 247.2" height="247.2" width="395.52"><g><path xmlns="http://www.w3.org/2000/svg" d="M55.039 247.2l33.615-58.224 2.924 0-32.073 55.553h276.51l-32.073-55.553 2.924 0 33.615 58.224zM197.76 0l33.615 58.224-2.924 0-30.691-53.159-30.691 53.159-2.924 0z" fill="#6f605b" fill-rule="nonzero" stroke="none" stroke-width="1" stroke-linecap="butt" stroke-linejoin="miter" stroke-miterlimit="10" stroke-dasharray="" stroke-dashoffset="0" font-family="none" font-weight="none" font-size="none" text-anchor="none" style="mix-blend-mode: normal" data-fill-palette-color="tertiary"></path></g><g transform="matrix(1,0,0,1,0,76.90251457624608)"><svg viewBox="0 0 395.52 93.39497084750784" height="93.39497084750784" width="395.52"><g><svg viewBox="0 0 473.44768805803324 111.7962" height="93.39497084750784" width="395.52"><g><rect width="4.630013952975413" height="111.7962" x="124.06251340799471" y="0" fill="#6f605b" opacity="1" stroke-width="0" stroke="transparent" fill-opacity="1" class="rect-o-0" data-fill-palette-color="primary" rx="1%" id="o-0" data-palette-color="#6f605b"></rect></g><g transform="matrix(1,0,0,1,140.81298273525132,0.2780999999999949)"><svg viewBox="0 0 332.63470532278194 111.24000000000001" height="111.24000000000001" width="332.63470532278194"><g id="textblocktransform"><svg viewBox="0 0 332.63470532278194 111.24000000000001" height="111.24000000000001" width="332.63470532278194" id="textblock"><g><svg viewBox="0 0 332.63470532278194 111.24000000000001" height="111.24000000000001" width="332.63470532278194"><g transform="matrix(1,0,0,1,0,0)"><svg width="332.63470532278194" viewBox="3.219998836517334 -35.498905181884766 233.69000244140625 74.98890686035156" height="111.24000000000001" data-palette-color="#6f605b"><svg></svg><svg></svg><g class="wordmark-text-0" data-fill-palette-color="primary" id="text-0"><path xmlns="http://www.w3.org/2000/svg" d="M38.67-35.01v32.3c0 0.453-0.083 0.877-0.25 1.27-0.173 0.393-0.403 0.73-0.69 1.01-0.287 0.287-0.623 0.51-1.01 0.67-0.393 0.167-0.81 0.25-1.25 0.25v0c-0.387 0-0.78-0.073-1.18-0.22-0.4-0.147-0.753-0.383-1.06-0.71v0l-23.2-24.22v24.66h-6.34v-32.3c0-0.653 0.183-1.243 0.55-1.77 0.367-0.527 0.833-0.92 1.4-1.18v0c0.6-0.247 1.22-0.31 1.86-0.19 0.633 0.127 1.177 0.423 1.63 0.89v0l23.19 24.2v-24.66zM80.4-31.81v31.81h-6.35v-8.59h-22.32v8.59h-6.34v-17.5c0-2.56 0.437-4.913 1.31-7.06 0.88-2.147 2.103-3.993 3.67-5.54 1.56-1.547 3.407-2.753 5.54-3.62 2.133-0.86 4.46-1.29 6.98-1.29v0h14.31c0.44 0 0.853 0.08 1.24 0.24 0.393 0.167 0.737 0.397 1.03 0.69 0.293 0.293 0.52 0.633 0.68 1.02 0.167 0.393 0.25 0.81 0.25 1.25zM51.73-17.5v2.56h22.32v-13.72h-11.16c-0.193 0-0.603 0.027-1.23 0.08-0.627 0.06-1.353 0.203-2.18 0.43-0.82 0.227-1.687 0.577-2.6 1.05-0.907 0.473-1.743 1.123-2.51 1.95-0.767 0.833-1.397 1.873-1.89 3.12-0.5 1.24-0.75 2.75-0.75 4.53zM115.72-35.01h7.08l-16.57 33.76c-0.267 0.527-0.653 0.947-1.16 1.26-0.513 0.32-1.08 0.48-1.7 0.48v0c-0.6 0-1.157-0.16-1.67-0.48-0.513-0.313-0.91-0.733-1.19-1.26v0l-16.55-33.76h7.1l12.31 25.22zM155.18-20.7v6.39h-20.05v-6.39zM158.03-6.35v6.35h-22.9c-0.88 0-1.84-0.153-2.88-0.46-1.04-0.313-2.003-0.823-2.89-1.53-0.887-0.707-1.627-1.627-2.22-2.76-0.593-1.133-0.89-2.52-0.89-4.16v0-22.9c0-0.44 0.08-0.857 0.24-1.25 0.16-0.387 0.383-0.727 0.67-1.02 0.287-0.293 0.623-0.523 1.01-0.69 0.393-0.16 0.817-0.24 1.27-0.24v0h28.59v6.35h-25.44v19.75c0 0.827 0.22 1.46 0.66 1.9 0.44 0.44 1.083 0.66 1.93 0.66v0zM192.94-20.7v6.39h-20.04v-6.39zM195.8-6.35v6.35h-22.9c-0.88 0-1.84-0.153-2.88-0.46-1.04-0.313-2.003-0.823-2.89-1.53-0.887-0.707-1.63-1.627-2.23-2.76-0.593-1.133-0.89-2.52-0.89-4.16v0-22.9c0-0.44 0.083-0.857 0.25-1.25 0.16-0.387 0.383-0.727 0.67-1.02 0.287-0.293 0.623-0.523 1.01-0.69 0.393-0.16 0.817-0.24 1.27-0.24v0h28.59v6.35h-25.44v19.75c0 0.827 0.22 1.46 0.66 1.9 0.44 0.44 1.083 0.66 1.93 0.66v0zM236.91-35.01v32.3c0 0.453-0.083 0.877-0.25 1.27-0.173 0.393-0.403 0.73-0.69 1.01-0.28 0.287-0.617 0.51-1.01 0.67-0.387 0.167-0.8 0.25-1.24 0.25v0c-0.393 0-0.79-0.073-1.19-0.22-0.4-0.147-0.753-0.383-1.06-0.71v0l-23.19-24.22v24.66h-6.35v-32.3c0-0.653 0.183-1.243 0.55-1.77 0.367-0.527 0.833-0.92 1.4-1.18v0c0.607-0.247 1.227-0.31 1.86-0.19 0.633 0.127 1.177 0.423 1.63 0.89v0l23.2 24.2v-24.66z" fill="#6f605b" fill-rule="nonzero" stroke="none" stroke-width="1" stroke-linecap="butt" stroke-linejoin="miter" stroke-miterlimit="10" stroke-dasharray="" stroke-dashoffset="0" font-family="none" font-weight="none" font-size="none" text-anchor="none" style="mix-blend-mode: normal" data-fill-palette-color="primary" opacity="1"></path><path xmlns="http://www.w3.org/2000/svg" d="M38.23 21.5v14.3c0 0.46-0.08 0.883-0.24 1.27-0.167 0.393-0.39 0.73-0.67 1.01-0.287 0.287-0.627 0.513-1.02 0.68-0.387 0.16-0.81 0.24-1.27 0.24v0h-22.9c-0.587 0-1.217-0.07-1.89-0.21-0.673-0.14-1.34-0.353-2-0.64-0.66-0.293-1.29-0.673-1.89-1.14-0.607-0.467-1.14-1.027-1.6-1.68-0.467-0.66-0.837-1.427-1.11-2.3-0.28-0.873-0.42-1.853-0.42-2.94v0-17.19c0-0.587 0.07-1.217 0.21-1.89 0.14-0.673 0.357-1.34 0.65-2 0.293-0.66 0.673-1.29 1.14-1.89 0.473-0.607 1.04-1.14 1.7-1.6 0.66-0.467 1.42-0.837 2.28-1.11 0.867-0.28 1.843-0.42 2.93-0.42v0h25.81v6.35h-25.81c-0.827 0-1.46 0.22-1.9 0.66-0.44 0.44-0.66 1.09-0.66 1.95v0 17.14c0 0.813 0.223 1.443 0.67 1.89 0.447 0.447 1.077 0.67 1.89 0.67v0h19.75v-7.96h-16.89v-6.39h20.04c0.46 0 0.883 0.083 1.27 0.25 0.393 0.173 0.733 0.407 1.02 0.7 0.28 0.293 0.503 0.63 0.67 1.01 0.16 0.387 0.24 0.8 0.24 1.24zM79.2 7.19v31.81h-6.35v-8.59h-22.31v8.59h-6.35v-17.5c0-2.56 0.44-4.913 1.32-7.06 0.88-2.147 2.1-3.993 3.66-5.54 1.56-1.547 3.407-2.753 5.54-3.62 2.133-0.86 4.46-1.29 6.98-1.29v0h14.31c0.44 0 0.857 0.08 1.25 0.24 0.387 0.167 0.727 0.397 1.02 0.69 0.293 0.293 0.523 0.633 0.69 1.02 0.16 0.393 0.24 0.81 0.24 1.25zM50.54 21.5v2.56h22.31v-13.72h-11.16c-0.193 0-0.603 0.027-1.23 0.08-0.627 0.06-1.35 0.203-2.17 0.43-0.82 0.227-1.687 0.577-2.6 1.05-0.913 0.473-1.753 1.123-2.52 1.95-0.76 0.833-1.39 1.873-1.89 3.12-0.493 1.24-0.74 2.75-0.74 4.53zM127.32 6.7v32.3h-6.4v-20.85l-11.25 19.8c-0.28 0.507-0.667 0.89-1.16 1.15-0.5 0.26-1.033 0.39-1.6 0.39v0c-0.553 0-1.07-0.13-1.55-0.39-0.48-0.26-0.86-0.643-1.14-1.15v0l-11.3-19.8v20.85h-6.35v-32.3c0-0.733 0.217-1.383 0.65-1.95 0.433-0.573 1-0.957 1.7-1.15v0c0.34-0.08 0.68-0.11 1.02-0.09 0.34 0.027 0.67 0.1 0.99 0.22 0.32 0.127 0.61 0.3 0.87 0.52 0.26 0.22 0.48 0.483 0.66 0.79v0l14.45 25.12 14.45-25.12c0.373-0.62 0.89-1.06 1.55-1.32 0.66-0.26 1.35-0.3 2.07-0.12v0c0.68 0.193 1.24 0.577 1.68 1.15 0.44 0.567 0.66 1.217 0.66 1.95zM141.09 3.99v35.01h-6.35v-35.01zM183.5 3.99v32.3c0 0.453-0.087 0.877-0.26 1.27-0.173 0.393-0.4 0.73-0.68 1.01-0.287 0.287-0.627 0.51-1.02 0.67-0.387 0.167-0.8 0.25-1.24 0.25v0c-0.393 0-0.79-0.073-1.19-0.22-0.393-0.147-0.747-0.383-1.06-0.71v0l-23.19-24.22v24.66h-6.35v-32.3c0-0.653 0.183-1.243 0.55-1.77 0.367-0.527 0.833-0.92 1.4-1.18v0c0.607-0.247 1.227-0.31 1.86-0.19 0.633 0.127 1.18 0.423 1.64 0.89v0l23.19 24.2v-24.66zM225.42 21.5v14.3c0 0.46-0.083 0.883-0.25 1.27-0.16 0.393-0.383 0.73-0.67 1.01-0.287 0.287-0.623 0.513-1.01 0.68-0.393 0.16-0.817 0.24-1.27 0.24v0h-22.9c-0.587 0-1.22-0.07-1.9-0.21-0.673-0.14-1.34-0.353-2-0.64-0.66-0.293-1.29-0.673-1.89-1.14-0.6-0.467-1.133-1.027-1.6-1.68-0.46-0.66-0.83-1.427-1.11-2.3-0.273-0.873-0.41-1.853-0.41-2.94v0-17.19c0-0.587 0.067-1.217 0.2-1.89 0.14-0.673 0.357-1.34 0.65-2 0.293-0.66 0.677-1.29 1.15-1.89 0.473-0.607 1.037-1.14 1.69-1.6 0.66-0.467 1.423-0.837 2.29-1.11 0.86-0.28 1.837-0.42 2.93-0.42v0h25.8v6.35h-25.8c-0.833 0-1.47 0.22-1.91 0.66-0.44 0.44-0.66 1.09-0.66 1.95v0 17.14c0 0.813 0.223 1.443 0.67 1.89 0.453 0.447 1.087 0.67 1.9 0.67v0h19.75v-7.96h-16.9v-6.39h20.05c0.453 0 0.877 0.083 1.27 0.25 0.387 0.173 0.723 0.407 1.01 0.7 0.287 0.293 0.51 0.63 0.67 1.01 0.167 0.387 0.25 0.8 0.25 1.24z" fill="#6f605b" fill-rule="nonzero" stroke="none" stroke-width="1" stroke-linecap="butt" stroke-linejoin="miter" stroke-miterlimit="10" stroke-dasharray="" stroke-dashoffset="0" font-family="none" font-weight="none" font-size="none" text-anchor="none" style="mix-blend-mode: normal" data-fill-palette-color="primary" opacity="1"></path></g></svg></g></svg></g></svg></g></svg></g><g transform="matrix(1,0,0,1,0,0.2780999999999949)"><svg viewBox="0 0 111.94205803371352 111.24000000000001" height="111.24000000000001" width="111.94205803371352"><g><svg xmlns="http://www.w3.org/2000/svg" viewBox="3 4 57.36199951171875 57.00224685668945" x="0" y="0" height="111.24000000000001" width="111.94205803371352" class="icon-icon-0" data-fill-palette-color="accent" id="icon-0"><g data-name="solid bk copy" fill="#f36527" data-fill-palette-color="accent"><path d="M24 17a5.969 5.969 0 0 1 4 1.54V16H25a10 10 0 0 1-9-5.67 10.011 10.011 0 0 1-8 5.619V18.54A5.969 5.969 0 0 1 12 17Z" fill="#f36527" data-fill-palette-color="accent"></path><path d="M38 27V24a1 1 0 0 1 1-1H51a5.017 5.017 0 0 0 4.9-4H45a9.01 9.01 0 0 0-9 9v1A2 2 0 0 0 38 27Z" fill="#f36527" data-fill-palette-color="accent"></path><path d="M60 40V37a1 1 0 0 0-1-1H58v5h1A1 1 0 0 0 60 40Z" fill="#f36527" data-fill-palette-color="accent"></path><path d="M15 6h2a8.009 8.009 0 0 0 8 8h3V13a9.01 9.01 0 0 0-9-9H17a9.01 9.01 0 0 0-9 9v0.931A8.008 8.008 0 0 0 15 6Z" fill="#f36527" data-fill-palette-color="accent"></path><path d="M46.809 41H45.191a5.987 5.987 0 0 1-9.049 1.589c0.009 0.05 0.012 0.1 0.022 0.152a1.158 1.158 0 0 1 0.035 0.126 8.908 8.908 0 0 0 3.4 5.322 8.329 8.329 0 0 0 1.8 1.053A8.84 8.84 0 0 0 45 50h2a8.829 8.829 0 0 0 3.595-0.754 8.987 8.987 0 0 0 5.244-6.64A5.988 5.988 0 0 1 46.809 41Z" fill="#f36527" data-fill-palette-color="accent"></path><path d="M32 25V22a1 1 0 0 0-1-1H30v5h1A1 1 0 0 0 32 25Z" fill="#f36527" data-fill-palette-color="accent"></path><path d="M40 42a4 4 0 0 0 3.662-2.4 1 1 0 0 1 0.916-0.6h2.844a1 1 0 0 1 0.916 0.6A4 4 0 1 0 52 34H40a4 4 0 0 0 0 8Zm12-1a1 1 0 1 1 1-1A1 1 0 0 1 52 41Zm2-4a1 1 0 1 1-1 1A1 1 0 0 1 54 37Zm-2-2a1 1 0 1 1-1 1A1 1 0 0 1 52 35Zm-2 2a1 1 0 1 1-1 1A1 1 0 0 1 50 37ZM38 37h1V36h2v1h1v2H41v1H39V39H38Z" fill="#f36527" data-fill-palette-color="accent"></path><path d="M32 40a1 1 0 0 0 1 1h1V36H33a1 1 0 0 0-1 1Z" fill="#f36527" data-fill-palette-color="accent"></path><path d="M52 32a5.969 5.969 0 0 1 4 1.54V28a8.938 8.938 0 0 0-1.067-4.212A6.934 6.934 0 0 1 51 25H40v2a4 4 0 0 1-4 4v2.54A5.969 5.969 0 0 1 40 32Z" fill="#f36527" data-fill-palette-color="accent"></path><path d="M38.129 56.182a2.006 2.006 0 0 0 1.871-2V50.774a10.181 10.181 0 0 1-1.61-0.991 10.9 10.9 0 0 1-4-5.926 4.872 4.872 0 0 0-1.081-0.209l-4.115-0.256A15.994 15.994 0 0 1 18 48 15.8 15.8 0 0 1 6.806 43.392L3 43.629V61H24.534a7.007 7.007 0 0 1 6.033-4.348Z" fill="#f36527" data-fill-palette-color="accent"></path><path d="M12 27a4 4 0 0 0 3.662-2.4 1 1 0 0 1 0.916-0.6h2.844a1 1 0 0 1 0.916 0.6A4 4 0 1 0 24 19H12a4 4 0 0 0 0 8Zm12-1a1 1 0 1 1 1-1A1 1 0 0 1 24 26Zm2-4a1 1 0 1 1-1 1A1 1 0 0 1 26 22Zm-2-2a1 1 0 1 1-1 1A1 1 0 0 1 24 20Zm-2 2a1 1 0 1 1-1 1A1 1 0 0 1 22 22ZM10 22h1V21h2v1h1v2H13v1H11V24H10Z" fill="#f36527" data-fill-palette-color="accent"></path><path d="M5 26H6V21H5a1 1 0 0 0-1 1v3A1 1 0 0 0 5 26Z" fill="#f36527" data-fill-palette-color="accent"></path><path d="M57.194 58.392A15.861 15.861 0 0 1 53.73 61h6.611l0.021-2.411Z" fill="#f36527" data-fill-palette-color="accent"></path><path d="M53.747 58.178a4.011 4.011 0 0 1-3.747-4V51.571A10.865 10.865 0 0 1 47 52H45a10.839 10.839 0 0 1-3-0.43v2.61a4.011 4.011 0 0 1-3.746 4l-0.6 0.037a13.9 13.9 0 0 0 16.694 0Z" fill="#f36527" data-fill-palette-color="accent"></path><path d="M30.691 58.648A5.012 5.012 0 0 0 26.763 61H38.252a16.018 16.018 0 0 1-3.446-2.608Z" fill="#f36527" data-fill-palette-color="accent"></path><path d="M19 37H17a10.966 10.966 0 0 1-3-0.426V39.18a4.011 4.011 0 0 1-3.746 4l-0.6 0.037a13.9 13.9 0 0 0 16.694 0l-0.6-0.038a4.011 4.011 0 0 1-3.747-4V36.574A10.966 10.966 0 0 1 19 37Z" fill="#f36527" data-fill-palette-color="accent"></path><path d="M24 29a6 6 0 0 1-5.191-3H17.191A5.987 5.987 0 0 1 8.15 27.6 9.009 9.009 0 0 0 17 35h2a9.009 9.009 0 0 0 8.85-7.4A5.971 5.971 0 0 1 24 29Z" fill="#f36527" data-fill-palette-color="accent"></path></g></svg></g></svg></g></svg></g></svg></g></svg></g><defs></defs></svg><rect width="395.52" height="247.2" fill="none" stroke="none" visibility="hidden"></rect></g></svg></g></svg>